<svg viewBox="80 60 140 80" xmlns="http://www.w3.org/2000/svg">
  <!-- Ferris the Database Crab - clear database integration -->
  <g transform="translate(150, 100)">
    
    <!-- Main body as a database cylinder -->
    <g>
      <!-- Database cylinder body -->
      <ellipse cx="0" cy="15" rx="40" ry="8" fill="#b83c00"/>
      <rect x="-40" y="-15" width="80" height="30" fill="#ce4a00"/>
      <ellipse cx="0" cy="-15" rx="40" ry="8" fill="#ce4a00"/>
      
      <!-- Clear database layer separations -->
      <ellipse cx="0" cy="-5" rx="40" ry="8" fill="none" stroke="#8b0000" stroke-width="2"/>
      <ellipse cx="0" cy="5" rx="40" ry="8" fill="none" stroke="#8b0000" stroke-width="2"/>
      
      <!-- Database layer fills -->
      <ellipse cx="0" cy="-5" rx="40" ry="8" fill="#d44500" opacity="0.7"/>
      <ellipse cx="0" cy="5" rx="40" ry="8" fill="#b83c00" opacity="0.7"/>
    </g>
    
    <!-- Eyes - authentic Ferris style on database -->
    <ellipse cx="-15" cy="-18" rx="7" ry="8" fill="white"/>
    <ellipse cx="15" cy="-18" rx="7" ry="8" fill="white"/>
    <ellipse cx="-15" cy="-18" rx="4" ry="5" fill="black"/>
    <ellipse cx="15" cy="-18" rx="4" ry="5" fill="black"/>
    <!-- Eye highlights -->
    <ellipse cx="-13" cy="-20" rx="1.5" ry="2" fill="white"/>
    <ellipse cx="17" cy="-20" rx="1.5" ry="2" fill="white"/>
    
    <!-- Left claw - clearly database-shaped -->
    <g transform="translate(-50, -5) rotate(-15)">
      <!-- Multi-layer database stack -->
      <ellipse cx="0" cy="12" rx="10" ry="4" fill="#8b0000"/>
      <rect x="-10" y="4" width="20" height="8" fill="#b83c00"/>
      <ellipse cx="0" cy="4" rx="10" ry="4" fill="#ce4a00"/>
      
      <ellipse cx="0" cy="0" rx="9" ry="3" fill="#8b0000"/>
      <rect x="-9" y="-6" width="18" height="6" fill="#b83c00"/>
      <ellipse cx="0" cy="-6" rx="9" ry="3" fill="#ce4a00"/>
      
      <ellipse cx="0" cy="-10" rx="8" ry="3" fill="#8b0000"/>
      <rect x="-8" y="-16" width="16" height="6" fill="#b83c00"/>
      <ellipse cx="0" cy="-16" rx="8" ry="3" fill="#ce4a00"/>
      
      <!-- Claw pinchers -->
      <ellipse cx="-6" cy="-20" rx="3" ry="2" fill="#ce4a00"/>
      <ellipse cx="6" cy="-20" rx="3" ry="2" fill="#ce4a00"/>
    </g>
    
    <!-- Right claw - clearly database-shaped -->
    <g transform="translate(50, -5) rotate(15)">
      <!-- Multi-layer database stack -->
      <ellipse cx="0" cy="12" rx="10" ry="4" fill="#8b0000"/>
      <rect x="-10" y="4" width="20" height="8" fill="#b83c00"/>
      <ellipse cx="0" cy="4" rx="10" ry="4" fill="#ce4a00"/>
      
      <ellipse cx="0" cy="0" rx="9" ry="3" fill="#8b0000"/>
      <rect x="-9" y="-6" width="18" height="6" fill="#b83c00"/>
      <ellipse cx="0" cy="-6" rx="9" ry="3" fill="#ce4a00"/>
      
      <ellipse cx="0" cy="-10" rx="8" ry="3" fill="#8b0000"/>
      <rect x="-8" y="-16" width="16" height="6" fill="#b83c00"/>
      <ellipse cx="0" cy="-16" rx="8" ry="3" fill="#ce4a00"/>
      
      <!-- Claw pinchers -->
      <ellipse cx="-6" cy="-20" rx="3" ry="2" fill="#ce4a00"/>
      <ellipse cx="6" cy="-20" rx="3" ry="2" fill="#ce4a00"/>
    </g>
    
    <!-- Legs - cylindrical database style -->
    <g transform="translate(-25, 25) rotate(-25)">
      <ellipse cx="0" cy="6" rx="3" ry="2" fill="#8b0000"/>
      <rect x="-3" y="-6" width="6" height="12" fill="#ce4a00"/>
      <ellipse cx="0" cy="-6" rx="3" ry="2" fill="#ce4a00"/>
      <ellipse cx="0" cy="0" rx="3" ry="2" fill="none" stroke="#8b0000" stroke-width="1"/>
    </g>
    
    <g transform="translate(-10, 30) rotate(-10)">
      <ellipse cx="0" cy="4" rx="3" ry="2" fill="#8b0000"/>
      <rect x="-3" y="-4" width="6" height="8" fill="#ce4a00"/>
      <ellipse cx="0" cy="-4" rx="3" ry="2" fill="#ce4a00"/>
    </g>
    
    <g transform="translate(10, 30) rotate(10)">
      <ellipse cx="0" cy="4" rx="3" ry="2" fill="#8b0000"/>
      <rect x="-3" y="-4" width="6" height="8" fill="#ce4a00"/>
      <ellipse cx="0" cy="-4" rx="3" ry="2" fill="#ce4a00"/>
    </g>
    
    <g transform="translate(25, 25) rotate(25)">
      <ellipse cx="0" cy="6" rx="3" ry="2" fill="#8b0000"/>
      <rect x="-3" y="-6" width="6" height="12" fill="#ce4a00"/>
      <ellipse cx="0" cy="-6" rx="3" ry="2" fill="#ce4a00"/>
      <ellipse cx="0" cy="0" rx="3" ry="2" fill="none" stroke="#8b0000" stroke-width="1"/>
    </g>
    
    <!-- Mouth - Ferris smile -->
    <path d="M -10 -8 Q 0 -2 10 -8" stroke="#8b0000" stroke-width="2.5" fill="none" stroke-linecap="round"/>
    
    <!-- Database connection indicators -->
    <circle cx="-30" cy="-10" r="2" fill="#8b0000" opacity="0.6"/>
    <circle cx="30" cy="-10" r="2" fill="#8b0000" opacity="0.6"/>
    <circle cx="0" cy="-25" r="2" fill="#8b0000" opacity="0.6"/>
  </g>
</svg>